HIERARCHY
ROOT SimulationBone
{
	OFFSET 0.000000 0.000000 0.000000
	CHANNELS 6 Xposition Yposition Zposition Zrotation Yrotation Xrotation 
	JOINT Hips
	{
		OFFSET 0.000000 0.000000 0.000000
		CHANNELS 6 Xposition Yposition Zposition Zrotation Yrotation Xrotation 
		JOINT RightUpLeg
		{
			OFFSET 0.103458 1.857829 10.548508
			CHANNELS 3 Zrotation Yrotation Xrotation
			JOINT RightLeg
			{
				OFFSET 43.499996 -0.000038 0.000006
				CHANNELS 3 Zrotation Yrotation Xrotation
				JOINT RightFoot
				{
					OFFSET 42.372200 0.000008 -0.000002
					CHANNELS 3 Zrotation Yrotation Xrotation
					JOINT RightToe
					{
						OFFSET 17.299995 -0.000002 0.000004
						CHANNELS 3 Zrotation Yrotation Xrotation
						End Site
						{
							OFFSET 0.000000 0.000000 0.000000
						}
					}
				}
			}
		}
		JOINT LeftUpLeg
		{
			OFFSET 0.103455 1.857822 -10.548502
			CHANNELS 3 Zrotation Yrotation Xrotation
			JOINT LeftLeg
			{
				OFFSET 43.500038 -0.000023 0.000006
				CHANNELS 3 Zrotation Yrotation Xrotation
				JOINT LeftFoot
				{
					OFFSET 42.372261 0.000000 0.000010
					CHANNELS 3 Zrotation Yrotation Xrotation
					JOINT LeftToe
					{
						OFFSET 17.299995 -0.000005 0.000002
						CHANNELS 3 Zrotation Yrotation Xrotation
						End Site
						{
							OFFSET 0.000000 0.000000 0.000000
						}
					}
				}
			}
		}
		JOINT Spine
		{
			OFFSET 6.901965 -2.603733 -0.000004
			CHANNELS 3 Zrotation Yrotation Xrotation
			JOINT Spine1
			{
				OFFSET 12.588106 0.000003 0.000000
				CHANNELS 3 Zrotation Yrotation Xrotation
				JOINT Spine2
				{
					OFFSET 12.343201 0.000003 0.000003
					CHANNELS 3 Zrotation Yrotation Xrotation
					JOINT Neck
					{
						OFFSET 25.832893 -0.000008 0.000002
						CHANNELS 3 Zrotation Yrotation Xrotation
						JOINT Head
						{
							OFFSET 11.766605 0.000004 0.000000
							CHANNELS 3 Zrotation Yrotation Xrotation
							End Site
							{
								OFFSET 0.000000 0.000000 0.000000
							}
						}
					}
					JOINT RightShoulder
					{
						OFFSET 19.745905 -1.480375 6.000105
						CHANNELS 3 Zrotation Yrotation Xrotation
						JOINT RightArm
						{
							OFFSET 11.284126 -0.000015 -0.000029
							CHANNELS 3 Zrotation Yrotation Xrotation
							JOINT RightForeArm
							{
								OFFSET 33.000050 0.000007 0.000040
								CHANNELS 3 Zrotation Yrotation Xrotation
								JOINT RightHand
								{
									OFFSET 25.200010 0.000008 0.000004
									CHANNELS 3 Zrotation Yrotation Xrotation
									End Site
									{
										OFFSET 0.000000 0.000000 0.000000
									}
								}
							}
						}
					}
					JOINT LeftShoulder
					{
						OFFSET 19.746092 -1.480381 -6.000073
						CHANNELS 3 Zrotation Yrotation Xrotation
						JOINT LeftArm
						{
							OFFSET 11.284138 -0.000024 -0.000021
							CHANNELS 3 Zrotation Yrotation Xrotation
							JOINT LeftForeArm
							{
								OFFSET 33.000099 0.000014 0.000014
								CHANNELS 3 Zrotation Yrotation Xrotation
								JOINT LeftHand
								{
									OFFSET 25.199772 0.000145 0.000419
									CHANNELS 3 Zrotation Yrotation Xrotation
									End Site
									{
										OFFSET 0.000000 0.000000 0.000000
									}
								}
							}
						}
					}
				}
			}
		}
	}
}
MOTION
Frames: 16
Frame Time: 0.016667
-88.372423 0.000000 -225.779230 180.000000 -89.652476 180.000000 -0.774657 89.470292 0.886285 89.962212 3.284576 -178.106756 154.848025 -7.832820 179.573001 -66.527960 4.317589 20.766552 71.729372 -22.650826 -22.011874 21.454556 0.003114 0.000013 164.530575 2.242731 -173.933728 -29.222659 1.030819 0.713183 84.249052 0.067043 2.776558 21.454549 -0.003098 -0.000002 6.213595 0.935711 1.452498 2.438189 1.841408 2.924288 2.120344 1.858907 2.913117 18.410685 -9.431279 5.639736 -13.013723 1.630277 4.956233 -162.319119 -76.464722 -19.494188 27.736327 67.960687 36.000402 -22.705219 -7.422280 0.646237 7.611300 -1.876315 6.591402 -132.607239 82.319514 49.512949 9.500369 -61.570543 -44.773475 -60.373683 20.902581 -2.521206 2.684448 10.187338 -7.604913 
-88.535306 0.000000 -225.276123 0.000000 -89.053297 0.000000 -0.770128 89.469254 0.844359 90.005415 3.133098 -178.029590 153.572254 -7.911189 179.924996 -68.257829 4.271083 19.999573 71.641580 -22.465274 -22.996176 21.454558 0.003110 0.000016 165.118484 2.401202 -173.198530 -29.384272 0.788154 1.100430 84.819064 -0.151755 3.034472 21.454551 -0.003086 -0.000000 6.223633 0.904062 1.487873 2.457949 1.777144 2.994504 2.140142 1.795059 2.983726 18.547770 -9.612399 5.129300 -12.305430 1.751363 4.386529 -162.040198 -76.447604 -19.779473 29.150990 67.540193 37.501220 -21.911021 -7.383099 0.631429 8.831048 -0.940616 7.154925 -131.543577 82.386593 50.583496 8.324129 -60.903634 -40.595193 -65.066949 19.531185 -2.607355 1.665034 9.610247 -10.623539 
-88.676892 0.000000 -224.765346 0.000000 -87.772937 0.000000 -0.804800 89.476893 0.793812 89.962336 2.972266 -178.059078 152.454705 -7.930997 -179.838039 -69.581515 4.116200 18.294084 72.773563 -21.174257 -23.647121 21.454561 0.003109 0.000014 165.637485 2.579623 -172.283450 -29.433584 0.488711 1.324589 85.291789 -0.264459 3.258736 21.454551 -0.003081 0.000001 6.228009 0.857842 1.526062 2.466004 1.683813 3.069950 2.148249 1.702178 3.059743 18.473969 -9.873990 4.804164 -11.960104 2.170418 3.892172 -161.651173 -76.515934 -20.176294 30.697560 66.998006 39.004303 -21.516695 -7.362467 0.624592 9.440526 -0.276671 8.340323 -130.558716 82.445087 51.574613 6.809136 -60.323488 -35.551109 -69.621758 17.419973 -2.640463 0.478496 8.722508 -13.194725 
-88.797318 0.000000 -224.245296 0.000000 -86.505901 0.000000 -0.853472 89.538559 0.734797 89.874154 2.679972 -178.221543 151.487694 -7.836507 -179.911103 -70.415527 3.929467 15.814611 74.148949 -19.097943 -23.848295 21.454565 0.003112 0.000013 166.185264 2.895100 -171.322769 -29.289117 0.204096 1.420300 85.643324 -0.298760 3.431085 21.454551 -0.003081 0.000001 6.238803 0.779467 1.575293 2.486079 1.525778 3.166860 2.168391 1.544726 3.157609 18.244424 -10.203523 4.566492 -11.994652 2.684457 3.436460 -161.343901 -76.633351 -20.488899 32.201150 66.381328 40.441070 -21.514531 -7.409120 0.628071 9.751578 0.166076 9.351470 -129.049669 82.546666 53.092034 5.020177 -59.924950 -29.876776 -74.126615 14.586421 -2.635326 -0.512561 7.787775 -14.660111 
-88.897895 0.000000 -223.713955 0.000000 -85.251558 0.000000 -0.892844 89.686028 0.666310 89.780418 2.161949 -178.532445 150.639361 -7.596448 179.550690 -70.712442 3.810984 12.861145 74.806595 -16.673238 -23.510298 21.454565 0.003115 0.000017 166.833620 3.436250 -170.422162 -28.910341 -0.015312 1.419772 85.869897 -0.278391 3.544727 21.454552 -0.003080 0.000001 6.262409 0.656365 1.641308 2.530519 1.277592 3.296457 2.212907 1.297326 3.288693 17.934371 -10.576071 4.314530 -12.374317 3.051800 2.991972 -161.239010 -76.747387 -20.594733 33.495678 65.738530 41.720781 -21.862831 -7.593796 0.644446 10.141462 0.503045 9.397414 -126.514587 82.733827 55.638664 2.981167 -59.774144 -23.802222 -78.690018 11.133113 -2.596603 -1.004059 7.073863 -14.707584 
-88.980972 0.000000 -223.168879 0.000000 -84.010491 0.000000 -0.935313 89.834824 0.584450 89.675103 1.626676 -178.938331 149.875851 -7.376397 178.718388 -70.517085 3.777230 9.754580 75.166005 -14.044880 -22.659788 21.454562 0.003117 0.000020 167.468671 4.018098 -169.507578 -28.504969 -0.193106 1.337166 86.075416 -0.209479 3.625840 21.454553 -0.003084 0.000000 6.285423 0.531530 1.717801 2.573542 1.025671 3.446870 2.256006 1.046318 3.440616 17.618903 -10.984821 4.078113 -13.016770 3.303592 2.586936 -160.957217 -76.821708 -20.881703 34.530655 65.080691 42.600216 -22.387970 -7.820719 0.666504 10.382973 0.789421 8.880651 -123.416183 82.993599 58.746388 0.608535 -59.748676 -17.471442 -83.137984 7.472644 -2.525576 -1.260408 6.598046 -14.425901 
-89.047779 0.000000 -222.608421 0.000000 -82.784142 0.000000 -0.995650 89.901395 0.486997 89.535498 1.285428 -179.374112 149.171932 -7.337204 177.820510 -69.878338 3.815976 6.813514 75.788326 -11.345014 -21.349185 21.454555 0.003115 0.000017 167.969443 4.446240 -168.509632 -28.274106 -0.365142 1.196806 86.359056 -0.103164 3.708641 21.454553 -0.003095 -0.000001 6.293785 0.447673 1.797640 2.588287 0.855983 3.604721 2.270828 0.877582 3.599490 17.356918 -11.417570 3.899538 -13.817210 3.514308 2.250932 -160.152178 -76.836069 -21.703753 35.288440 64.428175 42.878779 -22.912031 -7.994507 0.685245 10.207574 1.044909 8.368199 -120.354011 83.305607 61.810782 -2.163788 -59.689523 -11.131382 -87.288296 4.102316 -2.479161 -1.669874 6.369721 -14.802412 
-89.096911 0.000000 -222.031910 0.000000 -81.573927 0.000000 -1.066332 89.922150 0.384462 89.369423 1.062610 -179.797042 148.519744 -7.445505 176.975843 -68.775038 3.896749 4.321054 76.477135 -8.928426 -19.852119 21.454551 0.003111 0.000014 168.390664 4.754496 -167.529978 -28.143961 -0.541055 1.077687 86.693350 -0.006315 3.825662 21.454553 -0.003101 -0.000001 6.290063 0.390664 1.882049 2.579563 0.740256 3.772231 2.262183 0.762864 3.767701 17.145267 -11.826138 3.741338 -14.623585 3.652440 1.962684 -159.137491 -76.825901 -22.740206 35.729086 63.866406 42.645008 -23.373601 -8.187063 0.704085 9.759404 1.245337 7.905208 -117.274161 83.619414 64.889452 -5.445945 -59.490447 -5.326075 -91.155014 1.575997 -2.466726 -2.661512 6.686616 -15.075243 
-89.123615 0.000000 -221.438809 0.000000 -80.380228 0.000000 -1.136985 89.948129 0.289777 89.199212 0.844480 179.824883 147.920394 -7.622082 176.254859 -67.185404 3.980536 2.464801 76.903224 -7.079065 -18.453468 21.454554 0.003105 0.000016 168.819361 5.013994 -166.680501 -27.999353 -0.720384 1.054128 87.030965 0.035714 4.002162 21.454553 -0.003093 0.000000 6.280280 0.338372 1.973096 2.558746 0.634074 3.953095 2.241446 0.657774 3.949203 16.979290 -12.160085 3.553917 -15.311415 3.673995 1.693934 -158.298650 -76.841809 -23.596643 35.837628 63.474365 42.058610 -23.768980 -8.484071 0.729261 9.283069 1.346519 7.405450 -114.064908 83.880573 68.098972 -9.277487 -59.094733 -0.451241 -94.802405 0.232411 -2.520536 -4.393195 7.778688 -14.403378 
-89.121080 0.000000 -220.828970 0.000000 -79.203457 0.000000 -1.202276 89.968933 0.201042 89.046059 0.647447 179.505675 147.402708 -7.800991 175.650349 -65.169764 4.049309 1.081765 77.084298 -5.653336 -17.138307 21.454560 0.003102 0.000019 169.289790 5.220992 -165.954718 -27.832923 -0.889304 1.129763 87.371970 0.019729 4.238331 21.454553 -0.003086 0.000001 6.267968 0.293564 2.067987 2.532984 0.542906 4.141814 2.215765 0.567746 4.138468 16.908529 -12.393701 3.319091 -15.915519 3.589359 1.431657 -157.678344 -76.920814 -24.228743 35.746477 63.253588 41.295161 -24.207714 -8.859476 0.760164 9.016193 1.253089 6.770432 -110.889293 84.070759 71.277207 -13.462570 -58.513689 4.095208 -98.330749 -0.547220 -2.637606 -5.886357 9.212520 -13.278110 
-89.082784 0.000000 -220.203689 0.000000 -78.045683 0.000000 -1.258167 89.964655 0.115606 88.921010 0.512599 179.253166 146.992117 -7.949493 175.135516 -62.796448 4.093908 -0.001066 77.115506 -4.484352 -15.852975 21.454561 0.003105 0.000017 169.816148 5.349694 -165.346186 -27.654940 -1.031994 1.306502 87.722013 -0.056677 4.531996 21.454551 -0.003094 -0.000001 6.255042 0.263240 2.162067 2.506387 0.480761 4.329238 2.189251 0.506727 4.326268 16.969960 -12.520141 3.036379 -16.488706 3.438299 1.166868 -157.185099 -77.084976 -24.729375 35.585218 63.184628 40.494254 -24.789044 -9.263249 0.795040 9.088674 0.902179 5.933317 -107.999323 84.193892 74.171419 -17.781121 -57.741765 8.962793 -101.804956 -1.431107 -2.738749 -6.258525 10.458826 -12.181159 
-89.004271 0.000000 -219.565484 0.000000 -76.909461 0.000000 -1.307110 89.938782 0.042052 88.805373 0.446775 179.063659 146.675170 -8.153802 174.686036 -60.080201 4.103325 -0.643823 76.991578 -3.704781 -14.727787 21.454560 0.003111 0.000014 170.385762 5.363997 -164.965529 -27.438956 -1.138191 1.649141 88.061669 -0.234883 4.895897 21.454550 -0.003103 -0.000002 6.239328 0.246465 2.248113 2.474623 0.446019 4.500888 2.157568 0.473019 4.498128 17.096993 -12.585475 2.745241 -16.996019 3.326679 0.893774 -156.526910 -77.314410 -25.396745 35.358174 63.237687 39.669709 -25.457414 -9.661467 0.831567 9.195897 0.396504 4.970028 -105.589475 84.294106 76.583806 -22.177837 -56.766161 14.010426 -105.114192 -2.355017 -2.812233 -6.040015 11.530123 -10.484380 
-88.885539 0.000000 -218.917099 0.000000 -75.797525 0.000000 -1.352725 89.901828 -0.012843 88.678619 0.438791 178.933647 146.444026 -8.476787 174.273710 -57.015516 4.054327 -0.731989 76.664543 -3.422276 -13.844629 21.454560 0.003117 0.000016 170.985526 5.248435 -164.892816 -27.152800 -1.206677 2.203110 88.367574 -0.544076 5.335401 21.454552 -0.003097 -0.000001 6.217971 0.240190 2.319571 2.431915 0.432852 4.643579 2.114937 0.460720 4.640893 17.231001 -12.656101 2.482396 -17.402474 3.364556 0.599620 -155.500741 -77.561828 -26.438468 35.032878 63.371072 38.787601 -26.150786 -10.026924 0.866553 9.041223 -0.159589 4.039191 -103.678171 84.418323 78.493090 -26.607907 -55.594338 18.928955 -108.123821 -3.121869 -2.887852 -5.908762 12.559088 -7.645291 
-88.729158 0.000000 -218.260916 0.000000 -74.713362 0.000000 -1.397448 89.869003 -0.046977 88.541446 0.443338 178.871971 146.346460 -8.766293 173.848354 -53.569702 3.962849 -0.559547 76.058165 -3.344572 -12.913337 21.454562 0.003118 0.000019 171.627026 5.069398 -164.965693 -26.778200 -1.263487 2.873502 88.628855 -0.925804 5.812994 21.454555 -0.003085 0.000001 6.189528 0.240820 2.375134 2.375270 0.434154 4.754614 2.058354 0.462696 4.751911 17.448147 -12.823497 2.232640 -17.757749 3.610751 0.247004 -154.543314 -77.724133 -27.411140 34.550098 63.506769 37.744323 -26.937191 -10.342605 0.899985 8.806867 -0.778852 3.468783 -101.881357 84.581547 80.284948 -30.855402 -54.270250 23.486731 -110.780203 -3.722600 -2.964605 -5.843063 13.510281 -4.456794 
-88.535796 0.000000 -217.598354 0.000000 -73.660280 0.000000 -1.441886 89.852333 -0.058239 88.406185 0.417474 178.889824 146.443730 -8.867596 173.369819 -49.711811 3.860468 -0.428152 75.168040 -3.163915 -11.673089 21.454561 0.003111 0.000019 172.331596 4.900091 -164.980148 -26.307214 -1.334079 3.541277 88.844099 -1.306094 6.287118 21.454556 -0.003077 0.000001 6.154589 0.243843 2.415727 2.305696 0.440848 4.835744 1.988824 0.469872 4.832991 17.826106 -13.125099 1.969338 -18.105531 4.062100 -0.186151 -154.164418 -77.737013 -27.797120 33.878457 63.578987 36.506130 -27.878503 -10.605884 0.933230 8.690198 -1.483785 3.465345 -99.828305 84.765291 82.333482 -34.771026 -52.859832 27.581044 -113.066841 -4.190547 -3.031006 -5.718662 14.292476 -1.840489 
-88.304829 0.000000 -216.929799 0.000000 -72.641111 0.000000 -1.475846 89.846397 -0.047146 88.304279 0.360783 178.995754 146.802279 -8.832301 172.863987 -45.450663 3.681172 -0.280670 74.260596 -2.943320 -10.336278 21.454560 0.003104 0.000018 173.136416 4.771300 -164.812232 -25.758373 -1.415986 4.132049 89.032560 -1.638342 6.739980 21.454555 -0.003079 0.000000 6.120499 0.241633 2.445955 2.237568 0.437286 4.896046 1.920720 0.466670 4.893312 18.309425 -13.360522 1.678319 -18.375857 4.522923 -0.633643 -154.308028 -77.719925 -27.651128 33.105178 63.615041 35.369724 -28.881433 -10.861970 0.967925 8.493401 -2.256124 3.599958 -97.799881 84.867396 84.363738 -38.471005 -51.373236 31.375149 -115.039099 -4.549740 -3.089453 -5.559112 14.802977 0.098901 
